<svg xmlns="http://www.w3.org/2000/svg" viewBox="0 0 64 64">
    <path fill-rule="evenodd" d="M53.2 10.8C41.5-.9 22.5-.9 10.8 10.8s-11.7 30.7 0 42.4 30.7 11.7 42.4 0 11.7-30.7 0-42.4zm-2.8 2.8c10.1 10.1 10.1 26.6 0 36.8s-26.6 10.1-36.8 0-10.1-26.6 0-36.8 26.6-10.1 36.8 0zM29.2 32l-7.8-7.8c-.8-.8-.8-2 0-2.8.8-.8 2-.8 2.8 0l7.8 7.8 7.8-7.8c.8-.8 2-.8 2.8 0 .8.8.8 2 0 2.8L34.8 32l7.8 7.8c.8.8.8 2 0 2.8-.8.8-2 .8-2.8 0L32 34.8l-7.8 7.8c-.8.8-2 .8-2.8 0-.8-.8-.8-2 0-2.8l7.8-7.8z" clip-rule="evenodd"/>
</svg>
