<?xml version="1.0" encoding="UTF-8"?>
<svg width="16px" height="16px" viewBox="0 0 16 16" version="1.1" xmlns="http://www.w3.org/2000/svg" xmlns:xlink="http://www.w3.org/1999/xlink">
    <title>icon_add</title>
    <defs>
        <path d="M8,0 C12.4234798,0 16,3.57652018 16,8 C16,12.4234798 12.4234798,16 8,16 C3.57652018,16 0,12.4234798 0,8 C0,3.57652018 3.57652018,0 8,0 Z M11,7 L5,7 C4.44771525,7 4,7.44771525 4,8 C4,8.55228475 4.44771525,9 5,9 L5,9 L11,9 C11.5522847,9 12,8.55228475 12,8 C12,7.44771525 11.5522847,7 11,7 L11,7 Z" id="path-1"></path>
    </defs>
    <g id="Page-1" stroke="none" stroke-width="1" fill="none" fill-rule="evenodd">
        <g id="/wooks" transform="translate(-454.000000, -284.000000)">
            <g id="Group" transform="translate(250.000000, 126.000000)">
                <g id="icon/action/ag/add-copy-2" transform="translate(204.000000, 158.000000)">
                    <mask id="mask-2" fill="white">
                        <use xlink:href="#path-1"></use>
                    </mask>
                    <use id="icon_add" fill="#05CCCB" xlink:href="#path-1"></use>
                </g>
            </g>
        </g>
    </g>
</svg>