<?xml version="1.0" encoding="UTF-8"?>
<svg width="294px" height="30px" viewBox="0 0 294 30" version="1.1" xmlns="http://www.w3.org/2000/svg" xmlns:xlink="http://www.w3.org/1999/xlink">
    <title>Group 120</title>
    <g id="Page-1" stroke="none" stroke-width="1" fill="none" fill-rule="evenodd">
        <g id="/wooks" transform="translate(-250.000000, -45.000000)">
            <g id="Group-120" transform="translate(250.000000, 45.000000)">
                <polygon id="Fill-1" fill="#231F20" points="228 18 234 18 234 12 228 12"></polygon>
                <polygon id="Fill-2" fill="#231F20" points="234 18 240 18 240 12 234 12"></polygon>
                <polygon id="Fill-3" fill="#231F20" points="234 12 240 12 240 6 234 6"></polygon>
                <polygon id="Fill-4" fill="#231F20" points="228 6 234 6 234 0.001 228 0.001"></polygon>
                <polygon id="Fill-5" fill="#231F20" points="246 6 252 6 252 0.001 246 0.001"></polygon>
                <polygon id="Fill-6" fill="#231F20" points="246 12 252 12 252 6 246 6"></polygon>
                <polygon id="Fill-7" fill="#231F20" points="246 18 252 18 252 12 246 12"></polygon>
                <polygon id="Fill-8" fill="#231F20" points="246 24 252 24 252 18 246 18"></polygon>
                <polygon id="Fill-9" fill="#231F20" points="246 30 252 30 252 24 246 24"></polygon>
                <polygon id="Fill-10" fill="#231F20" points="252 18 258 18 258 12 252 12"></polygon>
                <polygon id="Fill-11" fill="#231F20" points="258 12 264 12 264 6 258 6"></polygon>
                <polygon id="Fill-12" fill="#231F20" points="264 6 270 6 270 0.001 264 0.001"></polygon>
                <polygon id="Fill-13" fill="#231F20" points="258 24 264 24 264 18 258 18"></polygon>
                <polygon id="Fill-14" fill="#231F20" points="264 30 270 30 270 24 264 24"></polygon>
                <polygon id="Fill-15" fill="#231F20" points="276 30 281.999 30 281.999 24 276 24"></polygon>
                <polygon id="Fill-16" fill="#231F20" points="282 30 288 30 288 24 282 24"></polygon>
                <polygon id="Fill-17" fill="#231F20" points="288 24 294 24 294 18.001 288 18.001"></polygon>
                <polygon id="Fill-18" fill="#231F20" points="288 24 294 24 294 18.001 288 18.001"></polygon>
                <polygon id="Fill-19" fill="#231F20" points="288 6 294 6 294 0.001 288 0.001"></polygon>
                <polygon id="Fill-20" fill="#231F20" points="282 6 288 6 288 0.001 282 0.001"></polygon>
                <polygon id="Fill-21" fill="#231F20" points="276 12 282 12 282 6 276 6"></polygon>
                <polygon id="Fill-22" fill="#231F20" points="282 18 288 18 288 12 282 12"></polygon>
                <polygon id="Fill-23" fill="#231F20" points="282 18 288 18 288 12 282 12"></polygon>
                <polygon id="Fill-24" fill="#F8BCBC" points="228 24 234 24 234 18 228 18"></polygon>
                <polygon id="Fill-25" fill="#F8BCBC" points="222 24 228 24 228 18 222 18"></polygon>
                <polygon id="Fill-26" fill="#F8BCBC" points="222 18 228 18 228 12 222 12"></polygon>
                <polygon id="Fill-27" fill="#F8BCBC" points="222 12 228 12 228 6 222 6"></polygon>
                <polygon id="Fill-28" fill="#F8BCBC" points="228 12 234 12 234 6 228 6"></polygon>
                <polygon id="Fill-29" fill="#231F20" points="216 12 222 12 222 6 216 6"></polygon>
                <polygon id="Fill-30" fill="#231F20" points="216 18 222 18 222 12 216 12"></polygon>
                <polygon id="Fill-31" fill="#231F20" points="216 24 222 24 222 18 216 18"></polygon>
                <polygon id="Fill-32" fill="#231F20" points="222 6 227.999 6 227.999 0.001 222 0.001"></polygon>
                <polygon id="Fill-33" fill="#231F20" points="222 30 227.999 30 227.999 24 222 24"></polygon>
                <polygon id="Fill-34" fill="#231F20" points="228 30 234 30 234 24 228 24"></polygon>
                <polygon id="Fill-35" fill="#231F20" points="234 24 240 24 240 18 234 18"></polygon>
                <polygon id="Fill-36" fill="#231F20" points="198 18 204 18 204 12 198 12"></polygon>
                <polygon id="Fill-37" fill="#231F20" points="204 18 210 18 210 12 204 12"></polygon>
                <polygon id="Fill-38" fill="#231F20" points="204 12 210 12 210 6 204 6"></polygon>
                <polygon id="Fill-39" fill="#231F20" points="198 6 204 6 204 0.001 198 0.001"></polygon>
                <polygon id="Fill-40" fill="#F8BCBC" points="198 24 204 24 204 18 198 18"></polygon>
                <polygon id="Fill-41" fill="#F8BCBC" points="192 24 198 24 198 18 192 18"></polygon>
                <polygon id="Fill-42" fill="#F8BCBC" points="192 18 198 18 198 12 192 12"></polygon>
                <polygon id="Fill-43" fill="#F8BCBC" points="192 12 198 12 198 6 192 6"></polygon>
                <polygon id="Fill-44" fill="#F8BCBC" points="198 12 204 12 204 6 198 6"></polygon>
                <polygon id="Fill-45" fill="#231F20" points="186 12 192 12 192 6 186 6"></polygon>
                <polygon id="Fill-46" fill="#231F20" points="186 18 192 18 192 12 186 12"></polygon>
                <polygon id="Fill-47" fill="#231F20" points="186 24 192 24 192 18 186 18"></polygon>
                <polygon id="Fill-48" fill="#231F20" points="192 6 198 6 198 0.001 192 0.001"></polygon>
                <polygon id="Fill-49" fill="#231F20" points="174 6 180 6 180 0.001 174 0.001"></polygon>
                <polygon id="Fill-50" fill="#231F20" points="174 18 180 18 180 12 174 12"></polygon>
                <polygon id="Fill-51" fill="#231F20" points="174 24 180 24 180 18 174 18"></polygon>
                <polygon id="Fill-52" fill="#231F20" points="168 30 173.999 30 173.999 24 168 24"></polygon>
                <polygon id="Fill-53" fill="#231F20" points="162 24 168 24 168 18 162 18"></polygon>
                <polygon id="Fill-54" fill="#231F20" points="162 18 168 18 168 12 162 12"></polygon>
                <polygon id="Fill-55" fill="#231F20" points="156 30 162 30 162 24 156 24"></polygon>
                <polygon id="Fill-56" fill="#231F20" points="150 24 156 24 156 18 150 18"></polygon>
                <polygon id="Fill-57" fill="#231F20" points="150 18 156 18 156 12 150 12"></polygon>
                <polygon id="Fill-58" fill="#231F20" points="150 12 156 12 156 6 150 6"></polygon>
                <polygon id="Fill-59" fill="#231F20" points="150 6 155.999 6 155.999 0.001 150 0.001"></polygon>
                <polygon id="Fill-60" fill="#231F20" points="138 12 144 12 144 6 138 6"></polygon>
                <polygon id="Fill-61" fill="#231F20" points="138 18 144 18 144 12 138 12"></polygon>
                <polygon id="Fill-62" fill="#231F20" points="138 24 144 24 144 18 138 18"></polygon>
                <polygon id="Fill-63" fill="#231F20" points="132 30 137.999 30 137.999 24 132 24"></polygon>
                <polygon id="Fill-64" fill="#231F20" points="126 30 132 30 132 24 126 24"></polygon>
                <polygon id="Fill-65" fill="#231F20" points="120 24 126 24 126 18 120 18"></polygon>
                <polygon id="Fill-66" fill="#231F20" points="120 18 126 18 126 12 120 12"></polygon>
                <polygon id="Fill-67" fill="#231F20" points="120 12 126 12 126 6 120 6"></polygon>
                <polygon id="Fill-68" fill="#231F20" points="108 6 114 6 114 0.001 108 0.001"></polygon>
                <polygon id="Fill-69" fill="#231F20" points="102 6 108 6 108 0.001 102 0.001"></polygon>
                <polygon id="Fill-70" fill="#231F20" points="96 6 101.999 6 101.999 0.001 96 0.001"></polygon>
                <polygon id="Fill-71" fill="#231F20" points="84 6 90 6 90 0.001 84 0.001"></polygon>
                <polygon id="Fill-72" fill="#231F20" points="84 12 90 12 90 6 84 6"></polygon>
                <polygon id="Fill-73" fill="#231F20" points="84 18 90 18 90 12 84 12"></polygon>
                <polygon id="Fill-74" fill="#231F20" points="78 6 83.999 6 83.999 0.001 78 0.001"></polygon>
                <polygon id="Fill-75" fill="#231F20" points="72 6 78 6 78 0.001 72 0.001"></polygon>
                <polygon id="Fill-76" fill="#231F20" points="60 6 65.999 6 65.999 0.001 60 0.001"></polygon>
                <polygon id="Fill-77" fill="#231F20" points="60 12 66 12 66 6 60 6"></polygon>
                <polygon id="Fill-78" fill="#231F20" points="54 24 60 24 60 18 54 18"></polygon>
                <polygon id="Fill-79" fill="#231F20" points="54 24 60 24 60 18 54 18"></polygon>
                <polygon id="Fill-80" fill="#231F20" points="54 30 60 30 60 24 54 24"></polygon>
                <polygon id="Fill-81" fill="#231F20" points="48 6 54 6 54 0.001 48 0.001"></polygon>
                <polygon id="Fill-82" fill="#231F20" points="36 6 42 6 42 0.001 36 0.001"></polygon>
                <polygon id="Fill-83" fill="#231F20" points="30 6 36 6 36 0.001 30 0.001"></polygon>
                <polygon id="Fill-84" fill="#231F20" points="24 6 29.999 6 29.999 0.001 24 0.001"></polygon>
                <polygon id="Fill-85" fill="#231F20" points="12 6 18 6 18 0.001 12 0.001"></polygon>
                <polygon id="Fill-86" fill="#231F20" points="6 6 11.999 6 11.999 0.001 6 0.001"></polygon>
                <polygon id="Fill-87" fill="#231F20" points="0 12 6 12 6 6 0 6"></polygon>
                <polygon id="Fill-88" fill="#231F20" points="0 18 6 18 6 12 0 12"></polygon>
                <polygon id="Fill-89" fill="#231F20" points="0 24 6 24 6 18.001 0 18.001"></polygon>
                <polygon id="Fill-90" fill="#231F20" points="6 30 11.999 30 11.999 24 6 24"></polygon>
                <polygon id="Fill-91" fill="#231F20" points="12 30 18 30 18 24 12 24"></polygon>
                <polygon id="Fill-92" fill="#231F20" points="24 12 30 12 30 6 24 6"></polygon>
                <polygon id="Fill-93" fill="#231F20" points="24 18 30 18 30 12 24 12"></polygon>
                <polygon id="Fill-94" fill="#231F20" points="24 24 30 24 30 18 24 18"></polygon>
                <polygon id="Fill-95" fill="#231F20" points="24 30 29.999 30 29.999 24 24 24"></polygon>
                <polygon id="Fill-96" fill="#231F20" points="36 30 42 30 42 24 36 24"></polygon>
                <polygon id="Fill-97" fill="#231F20" points="30 24 36 24 36 18 30 18"></polygon>
                <polygon id="Fill-98" fill="#231F20" points="36 18 42 18 42 12 36 12"></polygon>
                <polygon id="Fill-99" fill="#231F20" points="36 12 42 12 42 6 36 6"></polygon>
                <polygon id="Fill-100" fill="#231F20" points="48 12 54 12 54 6 48 6"></polygon>
                <polygon id="Fill-101" fill="#231F20" points="48 12 54 12 54 6 48 6"></polygon>
                <polygon id="Fill-102" fill="#231F20" points="60 18 66 18 66 12 60 12"></polygon>
                <polygon id="Fill-103" fill="#231F20" points="48 18 54 18 54 12 48 12"></polygon>
                <polygon id="Fill-104" fill="#231F20" points="72 12 78 12 78 6 72 6"></polygon>
                <polygon id="Fill-105" fill="#231F20" points="72 18 78 18 78 12 72 12"></polygon>
                <polygon id="Fill-106" fill="#231F20" points="72 24 78 24 78 18 72 18"></polygon>
                <polygon id="Fill-107" fill="#231F20" points="72 30 78 30 78 24 72 24"></polygon>
                <polygon id="Fill-108" fill="#231F20" points="78 18 84 18 84 12 78 12"></polygon>
                <polygon id="Fill-109" fill="#231F20" points="102 12 108 12 108 6 102 6"></polygon>
                <polygon id="Fill-110" fill="#231F20" points="102 18 108 18 108 12 102 12"></polygon>
                <polygon id="Fill-111" fill="#231F20" points="102 24 108 24 108 18 102 18"></polygon>
                <polygon id="Fill-112" fill="#231F20" points="102 30 108 30 108 24 102 24"></polygon>
                <polygon id="Fill-113" fill="#231F20" points="126 6 132 6 132 0.001 126 0.001"></polygon>
                <polygon id="Fill-114" fill="#231F20" points="132 6 137.999 6 137.999 0.001 132 0.001"></polygon>
                <polygon id="Fill-115" fill="#231F20" points="132 6 137.999 6 137.999 0.001 132 0.001"></polygon>
                <polygon id="Fill-116" fill="#231F20" points="174 12 180 12 180 6 174 6"></polygon>
                <polygon id="Fill-117" fill="#231F20" points="192 30 198 30 198 24 192 24"></polygon>
                <polygon id="Fill-118" fill="#231F20" points="198 30 204 30 204 24 198 24"></polygon>
                <polygon id="Fill-119" fill="#231F20" points="204 24 210 24 210 18 204 18"></polygon>
            </g>
        </g>
    </g>
</svg>