<?xml version="1.0" encoding="UTF-8"?>
<svg width="28px" height="30px" viewBox="0 0 28 30" version="1.1" xmlns="http://www.w3.org/2000/svg" xmlns:xlink="http://www.w3.org/1999/xlink">
    <title>Group 3</title>
    <defs>
        <polygon id="path-1" points="0 0.000126315789 27.036 0.000126315789 27.036 29.9457644 0 29.9457644"></polygon>
    </defs>
    <g id="Page-1" stroke="none" stroke-width="1" fill="none" fill-rule="evenodd">
        <g id=".com" transform="translate(-976.000000, -123.000000)">
            <g id="Group-3" transform="translate(976.000000, 123.000000)">
                <mask id="mask-2" fill="white">
                    <use xlink:href="#path-1"></use>
                </mask>
                <g id="Clip-2"></g>
                <path d="M7.61501053,3.06306316 L7.61501053,22.2946421 C6.60448421,21.7578 5.34132632,21.5367474 4.04658947,21.7893789 C1.39395789,22.2946421 -0.374463158,24.5367474 0.0676421053,26.7472737 C0.509747368,28.9578 3.00448421,30.3472737 5.62553684,29.8420105 C7.96237895,29.3999053 9.63606316,27.5999053 9.66764211,25.6739053 L9.66764211,9.09464211 L24.9834316,6.66306316 L24.9834316,19.5788526 C23.9729053,19.0420105 22.7097474,18.8209579 21.4150105,19.0735895 C18.7623789,19.5788526 16.9939579,21.8209579 17.4363789,24.0314842 C17.8781684,26.2420105 20.3729053,27.6314842 22.9939579,27.1262211 C25.3311158,26.6841158 27.0044842,24.8844316 27.0360632,22.9578 L27.0360632,-9.47368421e-05 L7.61501053,3.06306316 Z" id="Fill-1" fill="#EDA723" mask="url(#mask-2)"></path>
            </g>
        </g>
    </g>
</svg>