<?xml version="1.0" encoding="UTF-8"?>
<svg width="16px" height="16px" viewBox="0 0 16 16" version="1.1" xmlns="http://www.w3.org/2000/svg" xmlns:xlink="http://www.w3.org/1999/xlink">
    <title>icon_arrow-alt-right</title>
    <g id="Page-1" stroke="none" stroke-width="1" fill="none" fill-rule="evenodd">
        <g id="/wooks/id" transform="translate(-250.000000, -134.000000)" fill="#05CCCB">
            <g id="icon/nav/arrow-alt-right-copy" transform="translate(258.000000, 142.000000) rotate(-180.000000) translate(-258.000000, -142.000000) translate(250.000000, 134.000000)">
                <path d="M8,0 C12.4234798,0 16,3.57652018 16,8 C16,12.4234798 12.4234798,16 8,16 C3.57652018,16 0,12.4234798 0,8 C0,3.57652018 3.57652018,0 8,0 Z M9.70710678,4.29289322 C9.31658249,3.90236893 8.68341751,3.90236893 8.29289322,4.29289322 C7.90236893,4.68341751 7.90236893,5.31658249 8.29289322,5.70710678 L8.29289322,5.70710678 L9.586,7 L4,7 C3.48716416,7 3.06449284,7.38604019 3.00672773,7.88337887 L3,8 C3,8.55228475 3.44771525,9 4,9 L4,9 L9.584,9 L8.29289322,10.2928932 C7.93240926,10.6533772 7.90467972,11.2206082 8.20970461,11.6128994 L8.29289322,11.7071068 C8.68341751,12.0976311 9.31658249,12.0976311 9.70710678,11.7071068 L9.70710678,11.7071068 L12.7071068,8.70710678 C13.0976311,8.31658249 13.0976311,7.68341751 12.7071068,7.29289322 L12.7071068,7.29289322 Z" id="icon_arrow-alt-right"></path>
            </g>
        </g>
    </g>
</svg>