<?xml version="1.0" encoding="UTF-8"?>
<svg width="16px" height="16px" viewBox="0 0 16 16" version="1.1" xmlns="http://www.w3.org/2000/svg" xmlns:xlink="http://www.w3.org/1999/xlink">
    <title>icon/action/search</title>
    <defs>
        <path d="M10.5,4 C14.0898509,4 17,6.91014913 17,10.5 C17,11.9444133 16.528865,13.2787871 15.7318855,14.3578309 L19.7155456,18.3420781 C20.0948181,18.7213507 20.0948181,19.336273 19.7155456,19.7155456 C19.336273,20.0948181 18.7213507,20.0948181 18.3420781,19.7155456 L14.3578309,15.7318855 C13.2787871,16.528865 11.9444133,17 10.5,17 C6.91014913,17 4,14.0898509 4,10.5 C4,6.91014913 6.91014913,4 10.5,4 Z M10.5015638,5.5 C7.74236862,5.5 5.5,7.74317566 5.5,10.4989581 C5.49895957,11.8346531 6.01787165,13.0901229 6.96191652,14.0351115 C7.90700338,14.9790581 9.16260389,15.5 10.4984378,15.5 C11.8332297,15.5 13.0867462,14.9801 14.0318331,14.0382371 C14.0328751,14.0371952 14.0328751,14.0361534 14.0339171,14.0351115 C14.0349591,14.0340696 14.0370431,14.0330277 14.038085,14.0319858 C14.9810879,13.0869973 15.5,11.8336112 15.5,10.4989581 C15.5,7.74317566 13.2576329,5.5 10.5015638,5.5 Z" id="path-1"></path>
    </defs>
    <g id="Page-1" stroke="none" stroke-width="1" fill="none" fill-rule="evenodd">
        <g id="/wooks/attributes" transform="translate(-752.000000, -162.000000)">
            <g id="icon/action/search" transform="translate(748.000000, 158.000000)">
                <mask id="mask-2" fill="white">
                    <use xlink:href="#path-1"></use>
                </mask>
                <use id="icon_search" fill="#FFFFFF" fill-rule="evenodd" xlink:href="#path-1"></use>
            </g>
        </g>
    </g>
</svg>